<svg id="Capa_1" enable-background="new 0 0 502 502" height="512" viewBox="0 0 502 502" width="512" xmlns="http://www.w3.org/2000/svg" xmlns:xlink="http://www.w3.org/1999/xlink"><linearGradient id="lg1"><stop offset="0" stop-color="#4e5660"/><stop offset="1" stop-color="#64768d"/></linearGradient><linearGradient id="SVGID_1_" gradientUnits="userSpaceOnUse" x1="301.356" x2="376.328" xlink:href="#lg1" y1="409.361" y2="409.361"/><linearGradient id="lg2"><stop offset="0" stop-color="#74d2e8"/><stop offset="1" stop-color="#baeaf5"/></linearGradient><linearGradient id="SVGID_2_" gradientUnits="userSpaceOnUse" x1="299.617" x2="299.617" xlink:href="#lg2" y1="134.526" y2="19.572"/><linearGradient id="lg3"><stop offset="0" stop-color="#f4d952"/><stop offset="1" stop-color="#f9edaf"/></linearGradient><linearGradient id="SVGID_3_" gradientUnits="userSpaceOnUse" x1="251" x2="251" xlink:href="#lg3" y1="466.234" y2="82.146"/><linearGradient id="SVGID_4_" gradientUnits="userSpaceOnUse" x1="4.207" x2="536.161" xlink:href="#lg3" y1="259.887" y2="259.887"/><linearGradient id="SVGID_5_" gradientUnits="userSpaceOnUse" x1="220.391" x2="220.391" xlink:href="#lg1" y1="386.249" y2="103.701"/><linearGradient id="SVGID_6_" gradientUnits="userSpaceOnUse" x1="35.733" x2="35.733" xlink:href="#lg1" y1="373.175" y2="119.88"/><linearGradient id="SVGID_7_" gradientUnits="userSpaceOnUse" x1="141.299" x2="141.299" xlink:href="#lg2" y1="229.156" y2="42.463"/><linearGradient id="SVGID_8_" gradientUnits="userSpaceOnUse" x1="55.4" x2="137.966" xlink:href="#lg1" y1="377.083" y2="377.083"/><linearGradient id="SVGID_9_" gradientUnits="userSpaceOnUse" x1="172.537" x2="247.505" xlink:href="#lg1" y1="410.401" y2="410.401"/><g><path d="m314.865 473.465c-12.615-6.941-17.217-22.794-10.276-35.41 6.812-12.382 19.596-53.811 19.596-69.962 0-14.399 11.673-26.072 26.072-26.072s26.072 11.673 26.072 26.072c0 26.353-15.764 76.396-26.052 95.097-6.93 12.593-22.777 17.227-35.412 10.275z" fill="url(#SVGID_1_)"/><path d="m301.526 24.285c41.992.988 76.239 35.236 77.228 77.228 1.049 44.591-34.784 81.068-79.136 81.068-15.306 0-28.776 2.921-40.063 6.936-19.081 6.789-39.096-7.625-39.096-27.878v-58.217c-.001-44.353 36.476-80.186 81.067-79.137z" fill="url(#SVGID_2_)"/><path d="m318.541 424.97c101.321 0 183.459-73.91 183.459-165.083s-82.138-165.083-183.459-165.083c-173.544 0-243.095 98.337-308.152 144.913-13.851 9.916-13.851 30.422 0 40.339 65.057 46.577 134.608 144.914 308.152 144.914z" fill="url(#SVGID_3_)"/><path d="m318.541 424.97c101.321 0 183.459-73.91 183.459-165.083s-82.138-165.083-183.459-165.083c-173.544 0-243.095 98.337-308.152 144.913-13.851 9.916-13.851 30.422 0 40.339 65.057 46.577 134.608 144.914 308.152 144.914z" fill="url(#SVGID_4_)"/><g fill="#fffde3"><path d="m416.27 370.243c-3.037 0-6.036-1.378-8.001-3.992-3.318-4.415-2.43-10.684 1.984-14.003 1.616-1.214 3.218-2.474 4.76-3.744 4.266-3.509 10.568-2.898 14.076 1.366 3.51 4.264 2.898 10.566-1.365 14.076-1.77 1.456-3.603 2.898-5.453 4.289-1.8 1.354-3.91 2.008-6.001 2.008z"/><path d="m347.685 399.482c-4.774 0-9-3.431-9.842-8.296-.941-5.442 2.706-10.617 8.148-11.559 10.702-1.852 21.16-4.807 31.083-8.782 5.127-2.054 10.948.437 13.002 5.565 2.054 5.126-.438 10.948-5.564 13.001-11.22 4.494-23.032 7.833-35.11 9.923-.577.101-1.151.148-1.717.148z"/></g><path d="m141.299 215.581c9.869 0 19.626 1.691 29.001 5.027 8.794 3.129 17.683 4.152 26.211 3.397 11.702-1.036 18.597-13.64 13.183-24.066-3.084-5.939-9.446-9.41-16.113-8.83-3.977.346-8.12-.134-12.219-1.592-11.287-4.016-24.757-6.937-40.063-6.937-16.549 0-31.903-5.085-44.601-13.771-9.344 7.078-18.15 14.253-26.547 21.327 19.998 16.484 44.839 25.445 71.148 25.445z" fill="#efc534"/><path d="m159.75 129.445c-13.963 40.903-21.468 85.085-21.468 128.069 0 44.996 8.216 91.309 23.463 133.795 37.675 18.135 83.24 31.3 140.755 33.374-39.325-39.342-52.022-108.922-52.022-167.169 0-55.949 11.028-122.147 47.152-162.204-56.231 2.673-100.885 16.021-137.88 34.135z" fill="url(#SVGID_5_)"/><path d="m62.14 257.648c0-21.999 2.686-44.899 7.96-67.469-21.859 18.415-40.975 36.124-59.712 49.539-13.851 9.916-13.851 30.423 0 40.339 19.127 13.694 38.646 31.862 61.078 50.689-6.179-24.38-9.326-49.268-9.326-73.098z" fill="url(#SVGID_6_)"/><g><path d="m310.992 271.887c0 6.629-6.687 12.004-14.936 12.004s-14.936-5.374-14.936-12.004c0-6.629 6.687-12.003 14.936-12.003s14.936 5.374 14.936 12.003z" fill="#eaadcd"/><path d="m486.763 271.887c0 6.629-6.687 12.004-14.936 12.004s-14.936-5.374-14.936-12.004c0-6.629 6.687-12.003 14.936-12.003s14.936 5.374 14.936 12.003z" fill="#eaadcd"/><circle cx="321.662" cy="242.27" fill="#fff" r="29.618"/><path d="m351.28 242.27c0 9.749-7.903 17.652-17.652 17.652s-17.652-7.903-17.652-17.652 7.903-17.652 17.652-17.652c9.749-.001 17.652 7.903 17.652 17.652z" fill="#3b3b44"/><circle cx="446.22" cy="242.27" fill="#fff" r="29.618"/><g fill="#3b3b44"><path d="m475.775 242.27c0 9.749-7.903 17.652-17.652 17.652s-17.652-7.903-17.652-17.652 7.903-17.652 17.652-17.652c9.749-.001 17.652 7.903 17.652 17.652z"/><ellipse cx="383.941" cy="264.722" rx="13.252" ry="17.352"/></g></g><path d="m139.391 24.285c-41.992.988-76.239 35.236-77.228 77.228-1.049 44.591 34.784 81.068 79.136 81.068 15.306 0 28.776 2.921 40.063 6.936 19.081 6.789 39.096-7.625 39.096-27.878v-58.217c0-44.353-36.477-80.186-81.067-79.137z" fill="url(#SVGID_7_)"/><path d="m60.8 431.026c-8.774-11.417-6.63-27.785 4.788-36.559 18.264-14.034 20.235-43.448 20.235-55.442 0-14.399 11.672-26.072 26.072-26.072s26.072 11.673 26.072 26.072c0 24.494-5.275 69.639-40.608 96.788-11.369 8.737-27.748 6.68-36.559-4.787z" fill="url(#SVGID_8_)"/><path d="m180.836 470.74c-10.535-9.816-11.117-26.313-1.301-36.848 10.059-10.795 15.827-34.397 15.827-64.756 0-14.399 11.673-26.072 26.072-26.072s26.072 11.673 26.072 26.072c0 45.319-10.034 79.066-29.821 100.303-9.813 10.531-26.311 11.12-36.849 1.301z" fill="url(#SVGID_9_)"/><path d="m169.227 145.768c-6.906-10.818-27.562-32.572-44.211-42.035-5.758-3.273-7.774-10.595-4.5-16.353 3.273-5.758 10.595-7.774 16.353-4.5 19.406 11.03 42.852 34.75 52.576 49.983 3.564 5.583 1.927 12.998-3.656 16.562-5.605 3.576-13.012 1.905-16.562-3.657z" fill="#17c5d9"/><path d="m140.615 215.572c.228.001.455.008.684.008 9.869 0 19.626 1.691 29.001 5.027 8.794 3.129 17.683 4.152 26.211 3.397 11.702-1.036 18.597-13.64 13.183-24.066-3.084-5.939-9.446-9.41-16.113-8.83-3.977.346-8.12-.134-12.219-1.592-10.213-3.634-22.219-6.363-35.749-6.851-2.117 10.906-3.791 21.897-4.998 32.907z" fill="#424e5e"/></g></svg>