<svg version="1.1" xmlns="http://www.w3.org/2000/svg" xmlns:xlink="http://www.w3.org/1999/xlink" x="0px" y="0px"
	 width="181.095px" height="150.939px" viewBox="0 0 181.095 150.939" 
	 xml:space="preserve">
<g id="Shape_2_1_" enable-background="new    ">
	<g id="Shape_2">
		<g>
			<path fill="#855FA2" d="M180.453,109.163c0.869-7.09-5.193-13.209-5.938-20.041c-0.928-8.514,2.855-17.205-1.506-27.082
				c-4.223-9.557-6.096-14.732-7.912-24.887c-1.072-6.005-4.656-16.501-4.26-22.64c0.361-5.559,1.469-11.229-5.893-13.98
				c-6.875-2.568-35.092,4.749-43.127,8.858c-8.65,4.423-24.841,1.313-34.637,3.323c-7.766,1.595-16.924,1.305-24.315,3.759
				c-2.546,0.846-9.441,3.815-15.448,4.875c-13.073,1.098-25.759,2.393-31.328,3.31l-4.746,2.004
				c-2.347,2.114-0.893,6.877-0.961,9.399c-0.122,4.473,2.214,7.191,2.974,11.645c2.17,12.695,1.462,24.869,1.939,37.736
				c0.407,10.955,1.979,22.506,3.903,33.273c0.992,5.555,3.167,10.77,4.762,16.168c0.859,2.902,0.793,6.654,2.058,9.42
				c6.894,15.078,52.595-0.158,56.67-0.838c4.105-0.688,18.783,0.254,30.868-3.854c3.637-1.236,19.285-5.275,23.277-5.645
				c4.205-0.389,14.104-4.707,24.707-6.143c10.602-1.434,21.482-1.396,25.455-3.775
				C184.025,119.853,179.722,115.128,180.453,109.163z M172.703,117.483c-2.172,4.24-10.938,3.615-23.332,5.25
				c-2.785,0.367-12.445,4.848-20.664,6.473c-8.381,1.656-18.314,1.076-26.426,3.736c-6.545,2.143-17.745,6.068-24.669,7.096
				c-5.736,0.852-41.582,5.572-47.262,5.729c-10.019,0.271-4.373-2.105-9.083-9.795c-5.035-8.219-2.833-14.771-3.436-23.611
				c-0.579-8.521-6.174-13.893-1.859-23.893c2.67-6.182-0.376-12.404-2.469-18.299c-2.417-6.805-3.89-13.404-5.094-20.564
				c-0.363-2.156-4.292-13.503-0.647-15.938c9.546-6.378,12.197-3.673,22.116-5.285c10.584-1.717,21.549-3.062,24.827-3.402
				c9.397-0.98,17.294-4.973,26.438-7.121c8.234-1.938,17.785-2.473,26.189-2.54c12.447-0.097,41.137-10.82,44.469-4.851
				c1.75,3.139-0.268,6.472,1.355,12.091c1.336,4.63,5.119,5.811,6.689,15.152c0.641,3.812-1.227,14.15-0.275,20.988
				c1.43,10.248,5.051,13.902,6.01,19.609c1.527,9.092-0.229,14.766,2.359,22.096C169.724,105.456,175.634,111.759,172.703,117.483z
				"/>
		</g>
	</g>
</g>
</svg>
