<svg id="Capa_1" enable-background="new 0 0 512.026 512.026" height="512" viewBox="0 0 512.026 512.026" width="512" xmlns="http://www.w3.org/2000/svg"><g><g><path d="m233.447 338.507c-5.68 0-10.97-3.234-13.502-8.479l-32.578-67.48c-2.031-4.207-1.986-9.12.121-13.288l105.24-208.188c9.191-17.959 24.769-31.215 43.896-37.392s39.516-4.536 57.408 4.623c17.893 9.157 31.148 24.734 37.325 43.862 6.177 19.127 4.536 39.516-4.622 57.408l-105.206 208.12c-2.15 4.254-6.194 7.232-10.896 8.024l-74.689 12.581c-.835.141-1.671.209-2.497.209z" fill="#f3f5fc"/></g><path d="m233.447 338.507c.826 0 1.662-.068 2.497-.209l74.689-12.581c4.701-.792 8.745-3.771 10.896-8.024l105.206-208.12c9.158-17.893 10.799-38.281 4.622-57.408-6.16-19.077-19.365-34.619-37.185-43.786l-168.667 327.848c2.351 1.468 5.098 2.28 7.942 2.28z" fill="#dce0ea"/><g><path d="m204.76 391.529c-2.31 0-4.654-.535-6.85-1.665-7.366-3.789-10.266-12.833-6.476-20.2l154.964-301.214c3.79-7.366 12.833-10.267 20.2-6.476 7.366 3.789 10.266 12.833 6.476 20.2l-154.964 301.214c-2.66 5.171-7.909 8.141-13.35 8.141z" fill="#f5d953"/></g><path d="m204.76 391.529c5.441 0 10.69-2.97 13.351-8.141l154.963-301.213c3.79-7.367.891-16.411-6.476-20.2l-168.688 327.889c2.195 1.129 4.54 1.665 6.85 1.665z" fill="#eeba44"/><g><path d="m332.989 512.026h-241c-8.284 0-15-6.716-15-15 0-74.715 60.785-135.5 135.5-135.5s135.5 60.785 135.5 135.5c0 8.284-6.716 15-15 15z" fill="#656977"/></g><path d="m332.989 512.026c8.284 0 15-6.716 15-15 0-74.715-60.785-135.5-135.5-135.5v150.5z" fill="#464b52"/><g><path d="m302.864 391.526h-180.75c-8.284 0-15-6.716-15-15s6.716-15 15-15h180.75c8.284 0 15 6.716 15 15s-6.716 15-15 15z" fill="#464b52"/></g><path d="m302.864 361.526h-90.375v30h90.375c8.284 0 15-6.716 15-15s-6.716-15-15-15z" fill="#292b2f"/></g></svg>