<svg id="Layer_1" enable-background="new 0 0 512 512" height="512" viewBox="0 0 512 512" width="512" xmlns="http://www.w3.org/2000/svg"><g><g fill="#689f38"><path d="m304.133 247.974c-4.142 0-7.5 3.361-7.5 7.507v140.27c0 4.146 3.358 7.507 7.5 7.507s7.5-3.361 7.5-7.507v-140.271c0-4.146-3.358-7.506-7.5-7.506z"/><path d="m455.307 288.9c-4.142 0-7.5 3.361-7.5 7.507v41.288c0 4.146 3.358 7.507 7.5 7.507s7.5-3.361 7.5-7.507v-41.288c0-4.146-3.358-7.507-7.5-7.507z"/><path d="m26.904 310.294c-4.142 0-7.5 3.361-7.5 7.507v77.95c0 4.146 3.358 7.507 7.5 7.507s7.5-3.361 7.5-7.507v-77.951c0-4.145-3.358-7.506-7.5-7.506z"/></g><path d="m211.648 316.113h-75.265c-29.517 0-53.446-23.929-53.446-53.446v-.107c0-29.517 23.929-53.446 53.446-53.446h75.265c29.517 0 53.446 23.929 53.446 53.446v.107c0 29.517-23.929 53.446-53.446 53.446z" fill="#7cb342"/><path d="m94.176 224.036h61.811v229.774h-61.811z" fill="#be652b"/><path d="m125.081 224.036h30.905v229.774h-30.905z" fill="#a75224"/><path d="m148.756 255.514h-39.109c-49.233 0-89.144-39.911-89.144-89.144v-.08c0-49.233 39.911-89.144 89.144-89.144h39.109c49.233 0 89.144 39.911 89.144 89.144v.08c0 49.233-39.911 89.144-89.144 89.144z" fill="#9ccc65"/><path d="m148.796 77.147h-30.905c49.211 0 89.104 39.929 89.104 89.183 0 49.255-39.893 89.183-89.104 89.183h30.905c49.211 0 89.104-39.929 89.104-89.183 0-49.254-39.893-89.183-89.104-89.183z" fill="#8bc34a"/><path d="m116.135 335.015h-67.911c-26.634 0-48.224-21.59-48.224-48.224v-.097c0-26.633 21.59-48.224 48.224-48.224h67.911c26.633 0 48.224 21.59 48.224 48.224v.097c-.001 26.634-21.591 48.224-48.224 48.224z" fill="#8bc34a"/><path d="m116.156 238.471h-30.905c26.621 0 48.202 21.6 48.202 48.245v.053c0 26.645-21.581 48.245-48.202 48.245h30.905c26.621 0 48.202-21.6 48.202-48.245v-.053c0-26.645-21.581-48.245-48.202-48.245z" fill="#7cb342"/><path d="m451.682 315.892h-84.943c-33.313 0-60.318-27.005-60.318-60.318v-.121c0-33.313 27.005-60.318 60.318-60.318h84.943c33.313 0 60.318 27.005 60.318 60.318v.121c0 33.313-27.005 60.318-60.318 60.318z" fill="#7cb342"/><path d="m356 224.036h61.811v229.774h-61.811z" fill="#be652b"/><path d="m386.905 224.036h30.905v229.774h-30.905z" fill="#a75224"/><path d="m405.444 238.471h-43.516c-54.614 0-98.887-44.273-98.887-98.887v-.198c0-54.614 44.273-98.887 98.887-98.887h43.516c54.614 0 98.887 44.273 98.887 98.887v.198c-.001 54.614-44.274 98.887-98.887 98.887z" fill="#9ccc65"/><path d="m405.488 40.5h-30.905c54.589 0 98.843 44.293 98.843 98.931v.11c0 54.638-44.253 98.931-98.843 98.931h30.905c54.589 0 98.843-44.293 98.843-98.931v-.11c-.001-54.638-44.254-98.931-98.843-98.931z" fill="#8bc34a"/><path d="m346.605 282.313h-84.943c-33.313 0-60.318-27.005-60.318-60.318v-.121c0-33.313 27.005-60.318 60.318-60.318h84.943c33.313 0 60.318 27.005 60.318 60.318v.121c0 33.313-27.005 60.318-60.318 60.318z" fill="#8bc34a"/><path d="m346.632 161.556h-30.905c33.298 0 60.291 27.017 60.291 60.345v.067c0 33.328-26.993 60.345-60.291 60.345h30.905c33.298 0 60.291-27.017 60.291-60.345v-.067c0-33.328-26.993-60.345-60.291-60.345z" fill="#7cb342"/><path d="m487.863 453.81h-70.052v-52.813c0-19.344 15.682-35.026 35.026-35.026 19.344 0 35.026 15.682 35.026 35.026z" fill="#9ccc65"/><path d="m452.837 365.971c-5.548 0-10.791 1.296-15.453 3.594 11.593 5.715 19.573 17.654 19.573 31.463v52.782h30.905v-52.782c.001-19.361-15.681-35.057-35.025-35.057z" fill="#8bc34a"/><path d="m269.307 453.81h-70.052v-52.813c0-19.344 15.682-35.026 35.026-35.026 19.344 0 35.026 15.682 35.026 35.026z" fill="#9ccc65"/><path d="m234.281 365.971c-5.548 0-10.791 1.296-15.453 3.594 11.593 5.715 19.573 17.654 19.573 31.463v52.782h30.905v-52.782c.001-19.361-15.681-35.057-35.025-35.057z" fill="#8bc34a"/><path d="m129.202 453.81h-70.052v-52.813c0-19.344 15.682-35.026 35.026-35.026 19.344 0 35.026 15.682 35.026 35.026z" fill="#9ccc65"/><path d="m94.176 365.971c-5.548 0-10.791 1.296-15.453 3.594 11.593 5.715 19.573 17.654 19.573 31.463v52.782h30.905v-52.782c.001-19.361-15.681-35.057-35.025-35.057z" fill="#8bc34a"/><path d="m199.254 453.81h-70.052v-81.089c0-19.344 15.682-35.026 35.026-35.026 19.344 0 35.026 15.682 35.026 35.026z" fill="#9ccc65"/><path d="m164.228 337.695c-5.548 0-10.791 1.296-15.453 3.594 11.593 5.715 19.573 17.654 19.573 31.463v81.058h30.905v-81.058c.001-19.361-15.68-35.057-35.025-35.057z" fill="#8bc34a"/><path d="m496.54 471.5h-481.08c-8.539 0-15.46-6.922-15.46-15.46v-.014c0-8.538 6.921-15.46 15.46-15.46h481.08c8.538 0 15.46 6.922 15.46 15.46v.014c0 8.538-6.922 15.46-15.46 15.46z" fill="#d67b42"/><path d="m496.547 440.567h-30.905c8.534 0 15.453 6.925 15.453 15.466 0 8.542-6.918 15.467-15.453 15.467h30.905c8.534 0 15.453-6.925 15.453-15.467 0-8.541-6.918-15.466-15.453-15.466z" fill="#be652b"/></g></svg>